<?xml version="1.0" encoding="UTF-8" standalone="no"?>
<!-- Created with Inkscape (http://www.inkscape.org/) -->

<svg
   xmlns:dc="http://purl.org/dc/elements/1.1/"
   xmlns:cc="http://creativecommons.org/ns#"
   xmlns:rdf="http://www.w3.org/1999/02/22-rdf-syntax-ns#"
   xmlns:svg="http://www.w3.org/2000/svg"
   xmlns="http://www.w3.org/2000/svg"
   xmlns:sodipodi="http://sodipodi.sourceforge.net/DTD/sodipodi-0.dtd"
   xmlns:inkscape="http://www.inkscape.org/namespaces/inkscape"
   width="105.00435"
   height="127.741"
   viewBox="0 0 27.7824 33.798138"
   version="1.1"
   id="svg8"
   inkscape:version="0.92.5 (2060ec1f9f, 2020-04-08)"
   sodipodi:docname="kotarica_logo.svg">
  <defs
     id="defs2" />
  <sodipodi:namedview
     id="base"
     pagecolor="#ffffff"
     bordercolor="#666666"
     borderopacity="1.0"
     inkscape:pageopacity="0.0"
     inkscape:pageshadow="2"
     inkscape:zoom="4.5997296"
     inkscape:cx="-8.2432553"
     inkscape:cy="71.828691"
     inkscape:document-units="mm"
     inkscape:current-layer="layer1"
     showgrid="false"
     units="px"
     inkscape:window-width="1848"
     inkscape:window-height="1016"
     inkscape:window-x="72"
     inkscape:window-y="27"
     inkscape:window-maximized="1" />
  <metadata
     id="metadata5">
    <rdf:RDF>
      <cc:Work
         rdf:about="">
        <dc:format>image/svg+xml</dc:format>
        <dc:type
           rdf:resource="http://purl.org/dc/dcmitype/StillImage" />
        <dc:title />
      </cc:Work>
    </rdf:RDF>
  </metadata>
  <g
     inkscape:label="Layer 1"
     inkscape:groupmode="layer"
     id="layer1"
     transform="translate(-98.362747,-159.79178)">
    <path
       style="opacity:1;fill:#f3f3f3;fill-opacity:1;stroke:none;stroke-width:34.12170029;stroke-linecap:round;stroke-linejoin:round;stroke-miterlimit:4;stroke-dasharray:none;stroke-opacity:1;paint-order:normal"
       d="m 15.806641,10.9375 c -0.744734,-0.03558 -1.467905,0.110391 -2.095703,0.451172 -0.06463,0.03402 -0.129045,0.07196 -0.191407,0.109375 V 11.5 c -0.816048,0.493477 -1.393307,1.092348 -1.779297,1.736328 v 8.464844 c 0.725935,-0.57872 1.167048,-1.347978 1.410157,-2.148438 0.340157,-1.120214 -0.04519,-2.626557 -0.09961,-3.667968 -0.0548,-1.041411 0.470542,-2.106885 1.619141,-2.730469 0.354142,-0.19011 1.367844,-0.43554 2.173828,0.0039 0.806018,0.439748 1.559552,1.218987 1.164062,2.804688 -0.147401,0.543193 0.178619,1.102029 0.72461,1.238281 0.546179,0.136063 1.097629,-0.202901 1.222656,-0.751953 C 20.523632,14.17005 19.459836,12.359492 18.03125,11.580078 17.316955,11.190371 16.551374,10.97308 15.806641,10.9375 Z m 9.412109,2.892578 c -0.913365,0.02511 -1.73803,0.332574 -2.392578,0.767578 -0.872617,0.580158 -1.480115,1.356765 -1.808594,2.144532 -0.205984,0.493681 -0.530899,1.05748 -0.943359,1.435546 -0.412498,0.378067 -0.859111,0.603556 -1.595703,0.548828 -0.628691,-0.04649 -1.156244,-0.443652 -1.501954,-1.060546 -0.34507,-0.617386 -0.436715,-1.40431 -0.21875,-2.00586 0.342048,-0.903723 -0.663536,-1.722167 -1.478515,-1.203125 -0.191244,0.122079 -0.33596,0.303506 -0.410156,0.517578 -0.449386,1.240063 -0.255681,2.583359 0.355468,3.673829 0.611981,1.089977 1.712328,1.978698 3.105469,2.082031 1.285228,0.09524 2.368347,-0.40208 3.09961,-1.072266 0.731225,-0.670261 1.165122,-1.479838 1.441406,-2.142578 0.153827,-0.368504 0.551547,-0.900733 1.068359,-1.244141 0.516775,-0.343559 1.114491,-0.528577 1.849609,-0.390625 0.517115,0.09713 1.236403,0.773886 1.496094,1.546875 0.129638,0.38657 0.148612,0.764169 0.07227,1.058594 -0.07635,0.294425 -0.216851,0.525924 -0.570313,0.748047 -0.480453,0.29178 -0.631067,0.9185 -0.332031,1.394531 0.298205,0.476447 0.929953,0.614294 1.400391,0.306641 0.756056,-0.474709 1.252506,-1.194774 1.447265,-1.945313 0.195024,-0.750538 0.118404,-1.51321 -0.113281,-2.203125 -0.463483,-1.37983 -1.526935,-2.601048 -3.029297,-2.882812 -0.321099,-0.06019 -0.636951,-0.08259 -0.941406,-0.07422 z m 2.269531,10.265625 c -1.295468,0.008 -2.388805,0.655148 -3.310547,1.091797 -2.582664,1.229669 -6.363629,3.559005 -11.492187,6.402344 -0.287062,0.159145 -0.643403,0.353318 -0.945313,0.521484 v 17.423828 c 0.409083,0.02308 0.81359,0.02963 1.208985,0.01172 l 15.65625,-9.039063 c 1.661178,-2.752327 2.437878,-6.224472 2.636719,-8.298828 0.193133,-2.213291 -0.477101,-7.192518 -2.388672,-7.876953 -0.477893,-0.171108 -0.933412,-0.238995 -1.365235,-0.236329 z"
       transform="matrix(0.26458333,0,0,0.26458333,95.256594,159.79178)"
       id="rect816"
       inkscape:connector-curvature="0" />
    <path
       style="opacity:1;fill:#f3f3f3;fill-opacity:1;stroke:none;stroke-width:1.99481857;stroke-linecap:butt;stroke-linejoin:miter;stroke-miterlimit:4;stroke-dasharray:none;stroke-opacity:1;paint-order:markers stroke fill"
       d="m 110.01193,181.29679 c -0.0727,0.0425 -0.14142,0.0927 -0.20449,0.1505 -0.53846,0.49291 -0.52401,1.24202 -0.12986,1.69454 0.17195,0.19739 0.22479,0.34164 0.2282,0.46192 0.003,0.12028 -0.0427,0.2464 -0.16101,0.40735 -0.0762,0.10359 -0.24812,0.18364 -0.43367,0.18734 -0.18555,0.004 -0.357,-0.0664 -0.44178,-0.17642 -0.0896,-0.11625 -0.25653,-0.13787 -0.3728,-0.0483 -0.11627,0.0896 -0.13788,0.25652 -0.0483,0.37279 0.21436,0.27812 0.55355,0.38975 0.87354,0.38334 0.31999,-0.007 0.64851,-0.12837 0.85117,-0.40394 0.16048,-0.21821 0.27183,-0.4655 0.26407,-0.73748 -0.008,-0.27197 -0.1348,-0.53878 -0.35864,-0.79577 -0.21969,-0.25224 -0.26113,-0.63378 0.088,-0.95332 0.15524,-0.14211 0.39489,-0.20779 0.61081,-0.16325 0.21593,0.0446 0.41068,0.17881 0.52099,0.49126 0.0489,0.13843 0.20074,0.21102 0.33916,0.16213 0.13844,-0.0489 0.21102,-0.20073 0.16213,-0.33917 -0.16545,-0.46858 -0.52968,-0.75528 -0.91481,-0.83478 -0.28883,-0.0596 -0.58802,-0.0143 -0.84128,0.12351 -0.0105,0.006 -0.021,0.0116 -0.0314,0.0177 z m 2.69606,-0.97601 c -0.50847,0.30748 -0.68658,0.76767 -0.6042,1.18139 0.0824,0.41373 0.078,0.59974 0.0232,0.78037 -0.0548,0.18065 -0.14948,0.3177 -0.35778,0.40253 -0.21556,0.0878 -0.40374,0.0676 -0.57257,-0.0222 -0.16885,-0.0897 -0.31476,-0.25808 -0.39317,-0.47893 -0.0481,-0.13971 -0.20098,-0.21334 -0.34024,-0.1639 -0.13925,0.0494 -0.21144,0.20294 -0.16072,0.34174 0.11921,0.33581 0.34675,0.61251 0.64475,0.77054 0.29774,0.15819 0.66905,0.18884 1.02245,0.0448 0.36069,-0.14688 0.55021,-0.42914 0.64023,-0.72554 0.09,-0.29639 -0.0116,-0.69512 -0.026,-0.97066 -0.0145,-0.27554 0.12409,-0.55698 0.42799,-0.72197 0.0937,-0.0503 0.36198,-0.11561 0.57523,6.6e-4 0.21326,0.11635 0.41255,0.32264 0.30791,0.74219 -0.039,0.14372 0.0477,0.29147 0.19216,0.32752 0.14451,0.036 0.29043,-0.0536 0.32351,-0.19887 0.15043,-0.60303 -0.13117,-1.08198 -0.50915,-1.2882 -0.37798,-0.20622 -0.81106,-0.23093 -1.14327,-0.0506 -0.0171,0.009 -0.0338,0.0189 -0.0503,0.0288 z m -4.64182,2.87109 c -0.22758,0.1268 -0.4167,0.3355 -0.52339,0.60612 -0.15497,0.39304 -0.0411,0.7734 0.15177,1.02261 0.19282,0.24921 0.44496,0.4016 0.63887,0.48635 0.21262,0.0929 0.41167,0.16219 0.52571,0.24548 0.11404,0.0833 0.16489,0.13765 0.15427,0.35395 -0.0188,0.38326 -0.47975,0.62542 -0.88513,0.46199 -0.13702,-0.0589 -0.29562,0.007 -0.35137,0.14487 -0.0558,0.13831 0.0131,0.29541 0.15266,0.34806 0.71284,0.28745 1.57671,-0.15237 1.61495,-0.92856 0.0178,-0.36353 -0.15629,-0.65208 -0.37159,-0.80932 -0.2153,-0.15723 -0.45,-0.22604 -0.62654,-0.3032 -0.12405,-0.0542 -0.31806,-0.17841 -0.43124,-0.32468 -0.11319,-0.14628 -0.16519,-0.28028 -0.0776,-0.50228 0.0907,-0.23014 0.25787,-0.35647 0.4462,-0.39707 0.18835,-0.0406 0.39898,0.006 0.58339,0.17856 0.1066,0.10367 0.27754,0.0997 0.37923,-0.009 0.10171,-0.10845 0.0946,-0.2793 -0.0157,-0.379 -0.30299,-0.28392 -0.7003,-0.38765 -1.05882,-0.31037 -0.0896,0.0192 -0.17679,0.05 -0.25943,0.0913 -0.0153,0.008 -0.0306,0.0162 -0.046,0.0242 z m 5.10716,-2.0885 c -0.0506,0.0323 -0.0887,0.0805 -0.10833,0.13714 -0.1189,0.3281 -0.0677,0.68324 0.094,0.97176 0.16192,0.28839 0.45304,0.5234 0.82164,0.55074 0.34005,0.0252 0.62676,-0.10607 0.82024,-0.28339 0.19347,-0.17734 0.3082,-0.39178 0.3813,-0.56713 0.0407,-0.0975 0.14563,-0.23816 0.28237,-0.32902 0.13673,-0.0909 0.29509,-0.14008 0.48959,-0.10358 0.13682,0.0257 0.32706,0.20498 0.39577,0.4095 0.0343,0.10228 0.0395,0.20215 0.0193,0.28005 -0.0202,0.0779 -0.0577,0.13906 -0.15122,0.19783 -0.12712,0.0772 -0.16702,0.24308 -0.0879,0.36903 0.0789,0.12606 0.24612,0.1625 0.37059,0.0811 0.20004,-0.1256 0.33159,-0.3159 0.38312,-0.51448 0.0516,-0.19858 0.0313,-0.40024 -0.03,-0.58278 -0.12263,-0.36508 -0.40421,-0.68819 -0.80171,-0.76274 -0.33983,-0.0637 -0.65084,0.0299 -0.88175,0.18336 -0.23088,0.1535 -0.3919,0.35876 -0.47881,0.56719 -0.0545,0.13062 -0.14054,0.27972 -0.24967,0.37975 -0.10914,0.10003 -0.22695,0.15972 -0.42184,0.14524 -0.16634,-0.0123 -0.30589,-0.11735 -0.39736,-0.28057 -0.0913,-0.16335 -0.11557,-0.37162 -0.0579,-0.53078 0.0905,-0.23911 -0.17578,-0.45559 -0.39141,-0.31826 z m -5.79137,4.52155 c -0.0383,0.0218 -0.0742,0.0466 -0.10823,0.0732 -0.27027,0.21572 -0.35549,0.66755 -0.34278,0.93554 0.0976,0.71996 0.6021,1.27259 1.32251,1.95088 0.7204,0.67829 2.74292,1.87386 4.30341,1.80319 l 4.1424,-2.3916 c 0.43952,-0.72822 0.64492,-1.64699 0.69753,-2.19583 0.0511,-0.5856 -0.12636,-1.90292 -0.63213,-2.08401 -0.50577,-0.18109 -0.91162,0.0724 -1.23679,0.22644 -0.68333,0.32535 -1.68399,0.94157 -3.04092,1.69387 -1.35696,0.75229 -3.39195,1.93629 -4.28122,1.73666 -0.76436,-0.12485 -0.8362,-0.6053 -0.84072,-0.8172 -0.005,-0.2119 0.12408,-0.34965 0.24043,-0.44253 0.11635,-0.0929 0.27016,-0.14481 0.5948,4.5e-4 0.13437,0.0619 0.29346,0.002 0.35391,-0.1328 0.0604,-0.13505 -10e-4,-0.29347 -0.13676,-0.35239 -0.39504,-0.17677 -0.76744,-0.15625 -1.03542,-0.004 z"
       id="path845"
       inkscape:connector-curvature="0"
       sodipodi:nodetypes="scsccscscsssssscscscsszcsscscssszcccscccsscsssscsccccscscscccscccccccccccsccscsscccccccczccczczcsccscc" />
    <path
       style="opacity:1;fill:#f3f3f3;fill-opacity:1;stroke:none;stroke-width:34.12170029;stroke-linecap:round;stroke-linejoin:round;stroke-miterlimit:4;stroke-dasharray:none;stroke-opacity:1;paint-order:normal"
       d="m 116.74414,13.630859 c -0.34987,0.76091 -0.43553,1.569001 -0.2832,2.333985 0.31143,1.563704 0.29501,2.266522 0.0879,2.949218 -0.20712,0.682772 -0.56624,1.200868 -1.35352,1.521485 -0.81471,0.331842 -1.52596,0.255417 -2.16406,-0.08398 -0.63817,-0.339023 -1.18998,-0.975838 -1.48633,-1.810546 -0.18179,-0.528038 -0.75882,-0.806001 -1.28515,-0.619141 -0.5263,0.186709 -0.79912,0.766417 -0.60743,1.291016 0.45056,1.269203 1.3112,2.31483 2.4375,2.912109 1.12532,0.597883 2.5276,0.714325 3.86328,0.169922 0.29451,-0.119927 0.55417,-0.268575 0.79102,-0.431641 z m -5.71484,0.927735 c -0.82344,-0.02246 -1.63952,0.171857 -2.35742,0.5625 -0.0397,0.02268 -0.0779,0.04335 -0.11719,0.06641 -0.27477,0.16063 -0.53507,0.349903 -0.77344,0.568359 -2.03512,1.862967 -1.97994,4.695939 -0.49023,6.40625 0.64989,0.746041 0.84844,1.289539 0.86132,1.744141 0.0113,0.454602 -0.16026,0.932701 -0.60742,1.541016 -0.288,0.391521 -0.93933,0.693047 -1.64062,0.707031 -0.70129,0.01512 -1.34754,-0.250192 -1.66797,-0.666016 -0.33865,-0.43937 -0.97071,-0.522126 -1.41016,-0.183593 -0.43944,0.338645 -0.52021,0.97071 -0.18164,1.410156 0.81018,1.051162 2.09137,1.473445 3.30078,1.449218 1.20941,-0.02646 2.45084,-0.485819 3.2168,-1.527343 0.60654,-0.824731 1.02738,-1.759154 0.99805,-2.78711 -0.0302,-1.027918 -0.50946,-2.036511 -1.35547,-3.007812 -0.83033,-0.953348 -0.98752,-2.395806 0.33203,-3.603516 0.58673,-0.537108 1.49252,-0.785527 2.30859,-0.617187 0.81612,0.168567 1.55379,0.676508 1.97071,1.857422 0.18481,0.5232 0.75808,0.798062 1.28125,0.613281 0.52323,-0.184819 0.79806,-0.759965 0.61328,-1.283203 -0.62533,-1.771011 -2.00338,-2.853825 -3.45899,-3.154297 -0.27291,-0.05631 -0.54778,-0.08822 -0.82226,-0.0957 z m -7.63868,7.263672 c -0.34922,-0.01245 -0.69639,0.01878 -1.03515,0.0918 -0.33865,0.07257 -0.66813,0.189609 -0.98047,0.345704 -0.0578,0.03024 -0.11562,0.05961 -0.17383,0.08984 h -0.002 c -0.86015,0.479244 -1.573326,1.2682 -1.976564,2.291016 -0.585713,1.485506 -0.156692,2.923338 0.572266,3.865234 0.728768,0.941896 1.683128,1.517576 2.416018,1.837891 0.8036,0.351118 1.55531,0.612938 1.98633,0.927734 0.43101,0.314835 0.62217,0.520379 0.58203,1.337891 -0.0711,1.448542 -1.81161,2.363782 -3.34375,1.746094 -0.51787,-0.222614 -1.11742,0.02774 -1.32813,0.548828 -0.210896,0.522746 0.0487,1.115461 0.57617,1.314453 2.6942,1.086425 5.95899,-0.576134 6.10352,-3.509766 0.0673,-1.373971 -0.59057,-2.4643 -1.4043,-3.058593 -0.81373,-0.594255 -1.69995,-0.854856 -2.36719,-1.146485 -0.46885,-0.20485 -1.20309,-0.673731 -1.63085,-1.226562 -0.42781,-0.55287 -0.62402,-1.059383 -0.29297,-1.898438 0.3428,-0.86982 0.97375,-1.346551 1.68554,-1.5 0.71188,-0.153449 1.5081,0.02163 2.20508,0.673828 0.4029,0.391824 1.04926,0.377632 1.4336,-0.0332 0.38441,-0.40989 0.35828,-1.054821 -0.0586,-1.43164 -0.85887,-0.804813 -1.91912,-1.228282 -2.9668,-1.265625 z m -3,9.265625 c -0.665107,0.0078 -1.27092,0.169314 -1.777339,0.457031 v 0.002 c -0.144756,0.08239 -0.279586,0.174855 -0.408203,0.275391 -1.021493,0.815319 -1.34296,2.524233 -1.294922,3.537109 0.368882,2.721109 2.275238,4.809431 4.998044,7.373047 2.50777,2.36118 9.18804,6.371789 14.83594,6.783203 v -17.28325 c -5.07354,2.826369 -11.88833,6.624352 -15.01758,5.921875 -2.888917,-0.471874 -3.158695,-2.287009 -3.175779,-3.087891 -0.0189,-0.800882 0.468455,-1.322785 0.908203,-1.673828 0.439748,-0.351118 1.021066,-0.547061 2.248046,0.002 0.50786,0.233953 1.10942,0.0075 1.33789,-0.501953 0.22829,-0.510425 -0.004,-1.109341 -0.51758,-1.332031 -0.74653,-0.334054 -1.4716,-0.480461 -2.13672,-0.472656 z"
       transform="matrix(0.26458333,0,0,0.26458333,95.256594,159.79178)"
       id="rect824"
       inkscape:connector-curvature="0" />
  </g>
</svg>
