<svg width="28" height="28" viewBox="0 0 28 28" fill="none" xmlns="http://www.w3.org/2000/svg">
<path d="M14 15.3125C14.7249 15.3125 15.3125 14.7249 15.3125 14C15.3125 13.2751 14.7249 12.6875 14 12.6875C13.2751 12.6875 12.6875 13.2751 12.6875 14C12.6875 14.7249 13.2751 15.3125 14 15.3125Z" fill="black"/>
<path d="M14 8.3125C14.7249 8.3125 15.3125 7.72487 15.3125 7C15.3125 6.27513 14.7249 5.6875 14 5.6875C13.2751 5.6875 12.6875 6.27513 12.6875 7C12.6875 7.72487 13.2751 8.3125 14 8.3125Z" fill="black"/>
<path d="M14 22.3125C14.7249 22.3125 15.3125 21.7249 15.3125 21C15.3125 20.2751 14.7249 19.6875 14 19.6875C13.2751 19.6875 12.6875 20.2751 12.6875 21C12.6875 21.7249 13.2751 22.3125 14 22.3125Z" fill="black"/>
</svg>

