<svg width="24" height="24" viewBox="0 0 24 24" fill="none" xmlns="http://www.w3.org/2000/svg">
<path d="M13.8749 16.1244L3.74994 16.1244" stroke="black" stroke-width="1.5" stroke-linecap="round" stroke-linejoin="round"/>
<path d="M20.2499 16.1244L17.6249 16.1244" stroke="black" stroke-width="1.5" stroke-linecap="round" stroke-linejoin="round"/>
<path d="M15.7499 17.9994C16.7855 17.9994 17.6249 17.1599 17.6249 16.1244C17.6249 15.0889 16.7855 14.2494 15.7499 14.2494C14.7144 14.2494 13.8749 15.0889 13.8749 16.1244C13.8749 17.1599 14.7144 17.9994 15.7499 17.9994Z" stroke="black" stroke-width="1.5" stroke-linecap="round" stroke-linejoin="round"/>
<path d="M7.87494 7.87442L3.74994 7.87434" stroke="black" stroke-width="1.5" stroke-linecap="round" stroke-linejoin="round"/>
<path d="M20.2499 7.87434L11.6249 7.87442" stroke="black" stroke-width="1.5" stroke-linecap="round" stroke-linejoin="round"/>
<path d="M9.74994 9.74939C10.7855 9.74939 11.6249 8.90992 11.6249 7.87439C11.6249 6.83886 10.7855 5.99939 9.74994 5.99939C8.71441 5.99939 7.87494 6.83886 7.87494 7.87439C7.87494 8.90992 8.71441 9.74939 9.74994 9.74939Z" stroke="black" stroke-width="1.5" stroke-linecap="round" stroke-linejoin="round"/>
</svg>
