<?xml version="1.0" encoding="UTF-8" standalone="no"?>
<svg
   xmlns:dc="http://purl.org/dc/elements/1.1/"
   xmlns:cc="http://creativecommons.org/ns#"
   xmlns:rdf="http://www.w3.org/1999/02/22-rdf-syntax-ns#"
   xmlns:svg="http://www.w3.org/2000/svg"
   xmlns="http://www.w3.org/2000/svg"
   xmlns:sodipodi="http://sodipodi.sourceforge.net/DTD/sodipodi-0.dtd"
   xmlns:inkscape="http://www.inkscape.org/namespaces/inkscape"
   width="128"
   height="128"
   viewBox="0 0 128 128"
   version="1.1"
   id="svg11"
   sodipodi:docname="Icon.svg"
   style="fill:none"
   inkscape:export-filename="/home/jovan/Catalyst/src/frontend_mobile/assets/icons/Icon.png"
   inkscape:export-xdpi="180"
   inkscape:export-ydpi="180"
   inkscape:version="0.92.5 (2060ec1f9f, 2020-04-08)">
  <metadata
     id="metadata15">
    <rdf:RDF>
      <cc:Work
         rdf:about="">
        <dc:format>image/svg+xml</dc:format>
        <dc:type
           rdf:resource="http://purl.org/dc/dcmitype/StillImage" />
        <dc:title></dc:title>
      </cc:Work>
    </rdf:RDF>
  </metadata>
  <sodipodi:namedview
     pagecolor="#ffffff"
     bordercolor="#666666"
     borderopacity="1"
     objecttolerance="10"
     gridtolerance="10"
     guidetolerance="10"
     inkscape:pageopacity="0"
     inkscape:pageshadow="2"
     inkscape:window-width="1848"
     inkscape:window-height="1016"
     id="namedview13"
     showgrid="false"
     inkscape:zoom="4"
     inkscape:cx="-16.889831"
     inkscape:cy="51.108505"
     inkscape:window-x="72"
     inkscape:window-y="27"
     inkscape:window-maximized="1"
     inkscape:current-layer="svg11"
     inkscape:snap-page="false"
     inkscape:snap-intersection-paths="true" />
  <defs
     id="defs7">
    <linearGradient
       id="paint0_linear"
       x1="49.129997"
       y1="68.063606"
       x2="107.54322"
       y2="12.602999"
       gradientUnits="userSpaceOnUse"
       gradientTransform="matrix(0.78154876,0,0,0.781552,16.34607,25.264129)">
      <stop
         stop-color="#1BD14C"
         id="stop2" />
      <stop
         offset="1"
         stop-color="#0EAD65"
         id="stop4" />
    </linearGradient>
  </defs>
  <rect
     style="fill:#ffffff;fill-opacity:1;stroke-width:1.20052254"
     id="rect5131"
     width="128"
     height="128"
     x="0"
     y="5.3290705e-15" />
  <path
     d="m 63.23165,25.586524 c -0.713165,0.0033 -1.429454,0.08116 -2.137068,0.23764 -6.03637,1.335034 -9.102386,6.890463 -8.127874,11.878365 0.425164,2.175921 0.201798,3.457587 -0.282293,4.354262 -0.484171,0.896597 -1.356222,1.626488 -2.905878,2.305813 -0.997412,0.437122 -2.597398,0.296052 -3.973941,-0.462367 -1.376542,-0.758417 -2.337143,-1.998741 -2.493141,-3.164582 -0.164983,-1.232195 -1.297682,-2.09745 -2.529872,-1.932466 -1.232268,0.164986 -2.097521,1.297612 -1.932536,2.529885 0.394448,2.947545 2.409514,5.202558 4.783547,6.510563 2.374111,1.308082 5.299996,1.804603 7.953274,0.641654 2.100961,-0.920903 3.964797,-2.263141 5.059513,-4.290721 1.094794,-2.027658 1.292761,-4.522528 0.739345,-7.355186 -0.543254,-2.780214 0.768576,-5.753981 4.681946,-6.61948 1.740275,-0.384891 3.776132,0.147909 5.171114,1.389208 1.395064,1.241301 2.254924,3.050445 1.7409,5.809167 -0.227587,1.22227 0.578737,2.397646 1.801001,2.625233 1.222264,0.227668 2.397634,-0.578659 2.6253,-1.801008 0.770841,-4.137302 -0.686589,-7.782429 -3.174574,-9.996261 -1.865947,-1.660375 -4.252167,-2.59491 -6.693256,-2.656544 -0.101681,-0.0025 -0.203594,-0.0036 -0.305507,-0.0032 z m 23.906635,4.257992 c -5.031221,0.102095 -8.286215,2.723069 -9.43392,6.106242 -1.147782,3.383263 -1.967159,4.729094 -3.134402,5.821705 -1.167242,1.092609 -2.441635,1.697139 -4.328529,1.437351 -1.952777,-0.268932 -3.247335,-1.213906 -4.105862,-2.586702 -0.858454,-1.372874 -1.215621,-3.2257 -0.855562,-5.177548 0.23853,-1.228521 -0.570608,-2.415683 -1.801313,-2.642779 -1.230627,-0.227086 -2.410219,0.59308 -2.625848,1.825823 -0.547554,2.967709 -0.04806,5.960741 1.465873,8.381676 1.513938,2.420858 4.107428,4.217958 7.308962,4.658753 3.267343,0.449862 5.852628,-0.817659 7.767813,-2.610383 1.915264,-1.792723 2.85914,-5.14699 3.919155,-7.229512 1.059936,-2.082524 3.268516,-3.559579 6.19604,-3.482909 0.900579,0.0236 3.144485,0.684874 4.215831,2.441255 1.07142,1.756305 1.659623,4.113232 -0.884476,6.747139 -0.894796,0.888937 -0.884641,2.339576 0.02253,3.215931 0.907138,0.876433 2.357303,0.836494 3.214818,-0.08847 3.656405,-3.785915 3.619676,-8.491014 1.720502,-11.604093 -1.898845,-3.113117 -4.97049,-5.128122 -8.170936,-5.212014 -0.164828,-0.0042 -0.328407,-0.0048 -0.490655,-0.0015 z m -46.202034,1.40191 c -2.205999,-0.03276 -4.476867,0.696152 -6.40526,2.229158 -2.800916,2.226485 -3.576056,5.498452 -3.217011,8.142756 0.358965,2.644303 1.562862,4.829678 2.626237,6.272424 1.165836,1.581936 2.332533,2.932699 2.816233,4.026477 0.483779,1.093786 0.626489,1.70785 -0.367327,3.249305 -1.76083,2.73129 -6.166968,2.555513 -8.448073,-0.359983 -0.755837,-1.011722 -2.195918,-1.203748 -3.190517,-0.425476 -0.994608,0.778263 -1.154504,2.222264 -0.354277,3.199278 4.011065,5.126593 12.209355,5.559026 15.776578,0.0259 1.67017,-2.590764 1.614915,-5.444368 0.701674,-7.509223 -0.913317,-2.064942 -2.343316,-3.563411 -3.311344,-4.876889 -0.680182,-0.922934 -1.577322,-2.655321 -1.788027,-4.207485 -0.210705,-1.552161 -0.02438,-2.755048 1.557471,-4.012488 1.640081,-1.303784 3.400831,-1.522698 4.954004,-1.022894 1.553249,0.499802 2.901812,1.731763 3.522596,3.780054 0.343022,1.211718 1.613429,1.906362 2.818655,1.541221 1.205305,-0.36522 1.876577,-1.648059 1.489398,-2.846413 -1.019921,-3.365363 -3.494696,-5.808604 -6.45145,-6.759964 -0.73919,-0.237834 -1.508546,-0.381421 -2.289157,-0.42912 -0.146384,-0.009 -0.293315,-0.01443 -0.440403,-0.0166 z m 46.301134,6.308313 c -0.506991,0.0222 -0.99163,0.215083 -1.375293,0.547399 -2.261332,1.902922 -3.389733,4.724403 -3.425605,7.525095 -0.03588,2.800692 1.106439,5.757069 3.694068,7.51853 2.387162,1.624999 5.045992,1.876038 7.215884,1.394837 2.169736,-0.481284 3.91962,-1.5685 5.198239,-2.544964 0.711201,-0.543184 2.076572,-1.130048 3.463822,-1.217505 1.38803,-0.08746 2.7573,0.22235 4.02966,1.313472 0.89488,0.76764 1.53106,2.888303 1.16842,4.67931 -0.18132,0.895503 -0.56584,1.650093 -1.04415,2.135826 -0.47831,0.485814 -1.01132,0.775846 -1.94684,0.810628 -1.25907,0.02352 -2.25399,1.075647 -2.20709,2.334257 0.0468,1.258692 1.11684,2.234071 2.37434,2.164119 1.9992,-0.07442 3.76941,-0.912696 4.98864,-2.150988 1.21842,-1.238292 1.92416,-2.802959 2.24773,-4.40139 0.64633,-3.196861 -0.0507,-6.759015 -2.65024,-8.989095 -2.22272,-1.906518 -4.90031,-2.536528 -7.24339,-2.388814 -2.343867,0.147713 -4.393872,0.971703 -5.913977,2.132386 -0.951929,0.727472 -2.214988,1.456497 -3.438897,1.728012 -1.223985,0.271432 -2.340819,0.210312 -3.708995,-0.720985 -1.167633,-0.794913 -1.746527,-2.156064 -1.726206,-3.740505 0.02023,-1.58444 0.725902,-3.214914 1.822962,-4.138083 1.675953,-1.370607 0.639932,-4.085719 -1.523082,-3.991542 z m -61.621913,8.639119 c -0.372955,-0.0024 -0.741688,0.02392 -1.103703,0.07863 -2.895756,0.437981 -5.434008,3.390761 -6.475608,5.410055 -2.332788,5.693763 -0.97273,11.883265 1.438769,19.908554 2.4115,8.025371 12.18254,25.35832 23.926873,31.447933 H 83.910722 C 90.21782,99.559254 95.614648,93.690419 98.324284,89.887785 101.17927,85.809096 105.45591,75.396082 102.51337,71.926228 99.570859,68.456447 95.520859,68.596817 92.483293,68.349848 86.093822,67.842381 76.145409,68.124758 63.007579,67.896232 49.869745,67.66778 29.93095,67.735074 24.254092,62.504852 c -5.07737,-4.152308 -3.56981,-7.980353 -2.705729,-9.553621 0.86408,-1.57326 2.390625,-2.038988 3.637258,-2.227575 1.246648,-0.188514 2.594663,0.0819 4.360572,2.521989 0.723167,1.023367 2.142852,1.259161 3.158005,0.524502 1.015153,-0.734584 1.235081,-2.156769 0.489092,-3.163722 -2.148867,-2.969197 -4.966898,-4.395686 -7.577818,-4.412567 z"
     id="path9"
     inkscape:connector-curvature="0"
     style="fill:url(#paint0_linear);stroke-width:0.78155041"
     inkscape:export-xdpi="180"
     inkscape:export-ydpi="180" />
</svg>
