<svg width="123" height="100" viewBox="0 0 123 100" fill="none" xmlns="http://www.w3.org/2000/svg">
    <defs>
        <linearGradient id="paint0_linear" x1="52.0961" y1="59.1653" x2="121.95" y2="-2.22751" gradientUnits="userSpaceOnUse">
            <stop stop-color="#1BD14C"/>
            <stop offset="1" stop-color="#0EAD65"/>
        </linearGradient>
    </defs>
<path d="M59.9906 0.412504C59.0781 0.416669 58.1616 0.516342 57.2562 0.716567C49.5326 2.42475 45.6096 9.53295 46.8565 15.915C47.4005 18.6991 47.1147 20.339 46.4953 21.4863C45.8758 22.6335 44.76 23.5674 42.7772 24.4366C41.501 24.9959 39.4538 24.8154 37.6925 23.845C35.9312 22.8746 34.7021 21.2876 34.5025 19.7959C34.2914 18.2193 32.8421 17.1122 31.2655 17.3233C29.6888 17.5344 28.5817 18.9836 28.7928 20.5603C29.2975 24.3317 31.8758 27.217 34.9134 28.8906C37.9511 30.5643 41.6948 31.1996 45.0897 29.7116C47.7779 28.5333 50.1627 26.8159 51.5634 24.2216C52.9642 21.6272 53.2175 18.435 52.5094 14.8106C51.8143 11.2533 53.4928 7.44835 58.5 6.34094C60.7267 5.84847 63.3316 6.53019 65.1165 8.11844C66.9015 9.70669 68.0017 12.0215 67.344 15.5513C67.0528 17.1152 68.0845 18.6191 69.6484 18.9103C71.2123 19.2016 72.7162 18.1699 73.0075 16.6059C73.9938 11.3122 72.129 6.64824 68.9456 3.81563C66.5581 1.69117 63.5049 0.495429 60.3815 0.416567C60.2514 0.413279 60.121 0.411909 59.9906 0.412504ZM90.5794 5.86063C84.1419 5.99126 79.9771 9.34481 78.5086 13.6736C77.04 18.0025 75.9916 19.7245 74.4981 21.1225C73.0046 22.5205 71.374 23.294 68.9597 22.9616C66.4611 22.6175 64.8047 21.4084 63.7062 19.6519C62.6078 17.8953 62.1508 15.5246 62.6115 13.0272C62.9167 11.4553 61.8814 9.93632 60.3067 9.64575C58.7321 9.35519 57.2228 10.4046 56.9469 11.9819C56.2463 15.7791 56.8854 19.6087 58.8225 22.7063C60.7596 25.8038 64.078 28.1032 68.1744 28.6672C72.355 29.2428 75.6629 27.621 78.1134 25.3272C80.564 23.0334 81.7717 18.7416 83.128 16.077C84.4842 13.4124 87.3101 11.5225 91.0559 11.6206C92.2082 11.6508 95.0793 12.4969 96.4501 14.7442C97.821 16.9914 98.5736 20.0071 95.3184 23.3772C94.1735 24.5146 94.1865 26.3707 95.3472 27.492C96.5079 28.6134 98.3634 28.5623 99.4606 27.3788C104.139 22.5347 104.092 16.5145 101.662 12.5313C99.2324 8.54805 95.3022 5.96984 91.2072 5.8625C90.9963 5.85698 90.787 5.85641 90.5794 5.86063ZM31.4634 7.65438C28.6408 7.61247 25.7352 8.54511 23.2678 10.5066C19.684 13.3554 18.6922 17.5419 19.1516 20.9253C19.6109 24.3087 21.1513 27.1049 22.5119 28.9509C24.0036 30.975 25.4964 32.7033 26.1153 34.1028C26.7343 35.5023 26.9169 36.288 25.6453 38.2603C23.3923 41.755 17.7546 41.5301 14.8359 37.7997C13.8688 36.5052 12.0262 36.2595 10.7536 37.2553C9.48099 38.2511 9.2764 40.0987 10.3003 41.3488C15.4325 47.9083 25.9223 48.4616 30.4866 41.3819C32.6236 38.067 32.5529 34.4158 31.3844 31.7738C30.2158 29.1317 28.3861 27.2144 27.1475 25.5338C26.2772 24.3529 25.1293 22.1363 24.8597 20.1503C24.5901 18.1643 24.8285 16.6252 26.8525 15.0163C28.951 13.3481 31.2039 13.068 33.1912 13.7075C35.1786 14.347 36.9041 15.9233 37.6984 18.5441C38.1373 20.0945 39.7628 20.9833 41.3049 20.5161C42.8471 20.0488 43.706 18.4074 43.2106 16.8741C41.9056 12.5681 38.7391 9.44196 34.9559 8.22469C34.0101 7.92038 33.0257 7.73666 32.0269 7.67563C31.8396 7.66419 31.6516 7.65717 31.4634 7.65438ZM90.7062 15.7259C90.0575 15.7543 89.4374 16.0011 88.9465 16.4263C86.0531 18.8611 84.6093 22.4712 84.5634 26.0547C84.5175 29.6382 85.9791 33.4209 89.29 35.6747C92.3444 37.7539 95.7464 38.0751 98.5228 37.4594C101.299 36.8436 103.538 35.4525 105.174 34.2031C106.084 33.5081 107.831 32.7572 109.606 32.6453C111.382 32.5334 113.134 32.9298 114.762 34.3259C115.907 35.3081 116.721 38.0215 116.257 40.3131C116.025 41.4589 115.533 42.4244 114.921 43.0459C114.309 43.6675 113.627 44.0386 112.43 44.0831C110.819 44.1132 109.546 45.4594 109.606 47.0698C109.666 48.6803 111.035 49.9283 112.644 49.8388C115.202 49.7436 117.467 48.671 119.027 47.0866C120.586 45.5022 121.489 43.5002 121.903 41.455C122.73 37.3646 121.838 32.8068 118.512 29.9534C115.668 27.514 112.242 26.7079 109.244 26.8969C106.245 27.0859 103.622 28.1402 101.677 29.6253C100.459 30.5561 98.8429 31.4889 97.2769 31.8363C95.7108 32.1836 94.2818 32.1054 92.5312 30.9138C91.0372 29.8967 90.2965 28.1551 90.3225 26.1278C90.3484 24.1005 91.2513 22.0143 92.655 20.8331C94.7994 19.0794 93.4738 15.6054 90.7062 15.7259ZM11.8603 26.7797C11.3831 26.7766 10.9113 26.8103 10.4481 26.8803C6.74295 27.4407 3.49523 31.2188 2.16249 33.8025C-0.822337 41.0877 0.917873 49.0072 4.00341 59.2756C7.08895 69.5441 19.5911 91.7217 34.6181 99.5134H86.4497C94.5197 95.061 101.425 87.5518 104.892 82.6863C108.545 77.4676 114.017 64.1441 110.252 59.7044C106.487 55.2648 101.305 55.4444 97.4184 55.1284C89.243 54.4791 76.5139 54.8404 59.7039 54.548C42.8939 54.2557 17.382 54.3418 10.1184 47.6497C3.62185 42.3368 5.55079 37.4388 6.65639 35.4258C7.76199 33.4128 9.71522 32.8169 11.3103 32.5756C12.9054 32.3344 14.6302 32.6804 16.8897 35.8025C17.815 37.1119 19.6315 37.4136 20.9304 36.4736C22.2293 35.5337 22.5107 33.714 21.5562 32.4256C18.8067 28.6265 15.201 26.8013 11.8603 26.7797Z" fill="url(#paint0_linear)"/>
</svg>

