<svg width="14" height="14" viewBox="0 0 14 14" fill="none" xmlns="http://www.w3.org/2000/svg">
<mask id="path-1-inside-1" fill="white">
<path d="M13.0794 5.32717C13.0248 5.15568 12.9197 5.00464 12.778 4.89374C12.6362 4.78285 12.4643 4.71726 12.2847 4.70553L9.03679 4.47823L7.83195 1.44436C7.76675 1.27663 7.6524 1.13251 7.50389 1.03089C7.35538 0.929262 7.17963 0.87487 6.99968 0.87484H6.99882C6.81915 0.87516 6.64375 0.929691 6.49557 1.0313C6.34738 1.13291 6.23331 1.27687 6.16826 1.44436L4.94548 4.49575L1.7155 4.70553C1.5359 4.71726 1.36401 4.78285 1.22225 4.89374C1.08049 5.00464 0.975445 5.15568 0.920822 5.32717C0.863197 5.5011 0.859277 5.68834 0.909572 5.86453C0.959867 6.04071 1.06205 6.19767 1.2028 6.31496L3.68767 8.41531L2.94853 11.3227C2.89759 11.5186 2.90695 11.7252 2.97541 11.9156C3.04387 12.1061 3.16822 12.2714 3.3322 12.39C3.49051 12.5052 3.67983 12.57 3.87552 12.5761C4.0712 12.5822 4.26419 12.5293 4.42936 12.4242L6.99284 10.8002C6.99626 10.7976 6.99968 10.7959 7.00737 10.8002L9.76567 12.5476C9.91541 12.6433 10.0905 12.6916 10.2682 12.6861C10.4458 12.6806 10.6176 12.6216 10.7612 12.5169C10.9097 12.4095 11.0224 12.2597 11.0845 12.0872C11.1465 11.9147 11.1551 11.7275 11.1089 11.55L10.3237 8.37386L12.7974 6.31496C12.9382 6.19767 13.0403 6.04071 13.0906 5.86453C13.1409 5.68834 13.137 5.5011 13.0794 5.32717Z"/>
</mask>
<path d="M13.0794 5.32717C13.0248 5.15568 12.9197 5.00464 12.778 4.89374C12.6362 4.78285 12.4643 4.71726 12.2847 4.70553L9.03679 4.47823L7.83195 1.44436C7.76675 1.27663 7.6524 1.13251 7.50389 1.03089C7.35538 0.929262 7.17963 0.87487 6.99968 0.87484H6.99882C6.81915 0.87516 6.64375 0.929691 6.49557 1.0313C6.34738 1.13291 6.23331 1.27687 6.16826 1.44436L4.94548 4.49575L1.7155 4.70553C1.5359 4.71726 1.36401 4.78285 1.22225 4.89374C1.08049 5.00464 0.975445 5.15568 0.920822 5.32717C0.863197 5.5011 0.859277 5.68834 0.909572 5.86453C0.959867 6.04071 1.06205 6.19767 1.2028 6.31496L3.68767 8.41531L2.94853 11.3227C2.89759 11.5186 2.90695 11.7252 2.97541 11.9156C3.04387 12.1061 3.16822 12.2714 3.3322 12.39C3.49051 12.5052 3.67983 12.57 3.87552 12.5761C4.0712 12.5822 4.26419 12.5293 4.42936 12.4242L6.99284 10.8002C6.99626 10.7976 6.99968 10.7959 7.00737 10.8002L9.76567 12.5476C9.91541 12.6433 10.0905 12.6916 10.2682 12.6861C10.4458 12.6806 10.6176 12.6216 10.7612 12.5169C10.9097 12.4095 11.0224 12.2597 11.0845 12.0872C11.1465 11.9147 11.1551 11.7275 11.1089 11.55L10.3237 8.37386L12.7974 6.31496C12.9382 6.19767 13.0403 6.04071 13.0906 5.86453C13.1409 5.68834 13.137 5.5011 13.0794 5.32717Z" fill="black"/>
<path d="M13.0794 5.32717L11.1737 5.93417L11.1772 5.9452L11.1809 5.95618L13.0794 5.32717ZM12.2847 4.70553L12.1451 6.70067L12.1544 6.70128L12.2847 4.70553ZM9.03679 4.47823L7.178 5.21641L7.64229 6.38554L8.89717 6.47336L9.03679 4.47823ZM7.83195 1.44436L5.96785 2.169L5.97048 2.17578L5.97316 2.18253L7.83195 1.44436ZM6.99968 0.87484L7.00002 -1.12516H6.99968V0.87484ZM6.99882 0.87484V-1.12516L6.99526 -1.12516L6.99882 0.87484ZM6.16826 1.44436L8.02474 2.18831L8.02872 2.17839L8.03258 2.16843L6.16826 1.44436ZM4.94548 4.49575L5.0751 6.49154L6.33306 6.40984L6.80197 5.23969L4.94548 4.49575ZM1.7155 4.70553L1.58588 2.70973L1.58515 2.70978L1.7155 4.70553ZM0.920822 5.32717L2.81933 5.95618L2.82297 5.9452L2.82649 5.93417L0.920822 5.32717ZM1.2028 6.31496L2.49392 4.78748L2.48314 4.7785L1.2028 6.31496ZM3.68767 8.41531L5.62601 8.90808L5.93427 7.69552L4.97875 6.88786L3.68767 8.41531ZM2.94853 11.3227L4.88414 11.8262L4.88687 11.8155L2.94853 11.3227ZM3.3322 12.39L4.50883 10.7727L4.50417 10.7693L3.3322 12.39ZM4.42936 12.4242L3.35906 10.7346L3.35568 10.7368L4.42936 12.4242ZM6.99284 10.8002L8.06315 12.4897L8.12971 12.4475L8.19276 12.4003L6.99284 10.8002ZM7.00737 10.8002L8.0777 9.1107L8.02899 9.07984L7.97858 9.05184L7.00737 10.8002ZM9.76567 12.5476L10.8425 10.8622L10.836 10.8581L9.76567 12.5476ZM10.7612 12.5169L9.58947 10.896L9.58234 10.9012L10.7612 12.5169ZM11.1089 11.55L9.16739 12.03L9.17025 12.0416L9.17325 12.0532L11.1089 11.55ZM10.3237 8.37386L9.04422 6.83664L8.08148 7.63793L8.38211 8.85389L10.3237 8.37386ZM12.7974 6.31496L14.0768 7.85219L14.0777 7.85143L12.7974 6.31496ZM14.9851 4.72017C14.8084 4.16557 14.4687 3.67709 14.0102 3.31846L11.5457 6.46902C11.3708 6.33218 11.2411 6.14579 11.1737 5.93417L14.9851 4.72017ZM14.0102 3.31846C13.5518 2.95984 12.9959 2.74772 12.4151 2.70978L12.1544 6.70128C11.9327 6.6868 11.7206 6.60586 11.5457 6.46902L14.0102 3.31846ZM12.4243 2.71041L9.17641 2.48311L8.89717 6.47336L12.1451 6.70065L12.4243 2.71041ZM10.8956 3.74006L9.69074 0.706184L5.97316 2.18253L7.178 5.21641L10.8956 3.74006ZM9.69606 0.71972C9.48485 0.176389 9.11443 -0.290463 8.63335 -0.619664L6.37443 2.68144C6.19037 2.55549 6.04865 2.37688 5.96785 2.169L9.69606 0.71972ZM8.63335 -0.619664C8.15227 -0.948866 7.58296 -1.12506 7.00002 -1.12516L6.99934 2.87484C6.77631 2.8748 6.55849 2.80739 6.37443 2.68144L8.63335 -0.619664ZM6.99968 -1.12516H6.99882V2.87484H6.99968V-1.12516ZM6.99526 -1.12516C6.41305 -1.12412 5.8447 -0.947421 5.36453 -0.618168L7.62661 2.68077C7.44281 2.8068 7.22525 2.87444 7.00239 2.87484L6.99526 -1.12516ZM5.36453 -0.618168C4.88436 -0.288916 4.51471 0.177566 4.30393 0.720284L8.03258 2.16843C7.9519 2.37618 7.81041 2.55474 7.62661 2.68077L5.36453 -0.618168ZM4.31177 0.700413L3.08899 3.7518L6.80197 5.23969L8.02474 2.18831L4.31177 0.700413ZM4.81586 2.49995L1.58588 2.70973L1.84512 6.70132L5.0751 6.49154L4.81586 2.49995ZM1.58515 2.70978C1.00433 2.74772 0.448428 2.95984 -0.0100234 3.31846L2.45452 6.46902C2.27959 6.60586 2.06748 6.6868 1.84585 6.70128L1.58515 2.70978ZM-0.0100234 3.31846C-0.468475 3.67709 -0.808189 4.16557 -0.984842 4.72017L2.82649 5.93417C2.75908 6.14579 2.62945 6.33218 2.45452 6.46902L-0.0100234 3.31846ZM-0.97769 4.69816C-1.16164 5.25337 -1.17415 5.85111 -1.0136 6.41353L2.83275 5.31553C2.89271 5.52558 2.88804 5.74882 2.81933 5.95618L-0.97769 4.69816ZM-1.0136 6.41353C-0.853048 6.97595 -0.526868 7.477 -0.0775342 7.85143L2.48314 4.7785C2.65096 4.91834 2.77278 5.10547 2.83275 5.31553L-1.0136 6.41353ZM-0.0882797 7.84241L2.39658 9.94276L4.97875 6.88786L2.49389 4.78751L-0.0882797 7.84241ZM1.74932 7.92253L1.01019 10.8299L4.88687 11.8155L5.62601 8.90808L1.74932 7.92253ZM1.01295 10.8192C0.860608 11.4048 0.888623 12.0228 1.09333 12.5922L4.85749 11.2391C4.92528 11.4276 4.93456 11.6323 4.88411 11.8262L1.01295 10.8192ZM1.09333 12.5922C1.29803 13.1617 1.66989 13.656 2.16023 14.0106L4.50417 10.7693C4.66655 10.8868 4.7897 11.0505 4.85749 11.2391L1.09333 12.5922ZM2.15557 14.0072C2.63859 14.3587 3.2162 14.5565 3.81324 14.5751L3.93779 10.5771C4.14346 10.5835 4.34244 10.6517 4.50883 10.7727L2.15557 14.0072ZM3.81324 14.5751C4.41028 14.5937 4.99909 14.4322 5.50305 14.1115L3.35568 10.7368C3.52929 10.6263 3.73212 10.5707 3.93779 10.5771L3.81324 14.5751ZM5.49967 14.1137L8.06315 12.4897L5.92254 9.11068L3.35906 10.7346L5.49967 14.1137ZM8.19276 12.4003C8.12707 12.4495 7.75775 12.7344 7.18811 12.7886C6.63167 12.8416 6.21803 12.6496 6.03616 12.5486L7.97858 9.05184C7.78901 8.94654 7.36983 8.75322 6.80889 8.80664C6.23477 8.86132 5.86203 9.14831 5.79292 9.20013L8.19276 12.4003ZM5.93704 12.4897L8.69534 14.2371L10.836 10.8581L8.0777 9.1107L5.93704 12.4897ZM8.68886 14.233C9.17791 14.5455 9.74988 14.703 10.3299 14.6851L10.2064 10.687C10.4312 10.6801 10.6529 10.7411 10.8425 10.8623L8.68886 14.233ZM10.3299 14.6851C10.91 14.6672 11.4711 14.4746 11.94 14.1325L9.58234 10.9012C9.76406 10.7686 9.98156 10.694 10.2064 10.687L10.3299 14.6851ZM11.9328 14.1377C12.4078 13.7944 12.7681 13.3156 12.9664 12.7641L9.20252 11.4103C9.27679 11.2038 9.41166 11.0246 9.58948 10.896L11.9328 14.1377ZM12.9664 12.7641C13.1648 12.2126 13.1921 11.6141 13.0446 11.0469L9.17325 12.0532C9.11805 11.8408 9.12826 11.6167 9.20252 11.4103L12.9664 12.7641ZM13.0505 11.07L12.2652 7.89383L8.38211 8.85389L9.16739 12.03L13.0505 11.07ZM11.6031 9.91109L14.0768 7.85219L11.518 4.77774L9.04422 6.83664L11.6031 9.91109ZM14.0777 7.85143C14.5271 7.477 14.8533 6.97595 15.0138 6.41353L11.1675 5.31553C11.2274 5.10547 11.3493 4.91834 11.5171 4.7785L14.0777 7.85143ZM15.0138 6.41353C15.1744 5.8511 15.1619 5.25337 14.9779 4.69816L11.1809 5.95618C11.1122 5.74882 11.1075 5.52558 11.1675 5.31553L15.0138 6.41353Z" fill="black" mask="url(#path-1-inside-1)"/>
</svg>

