<svg width="14" height="14" viewBox="0 0 14 14" fill="none" xmlns="http://www.w3.org/2000/svg">
<path d="M12.6048 5.48442L12.6029 5.47893L12.603 5.47892C12.5789 5.40321 12.5325 5.33652 12.4699 5.28756L12.7675 4.90711L12.4699 5.28756C12.4073 5.2386 12.3314 5.20965 12.2521 5.20447L12.2498 5.20432L9.00188 4.97701L8.68816 4.95506L8.57209 4.66278L7.36726 1.6289L7.36591 1.62552L7.36593 1.62552C7.33723 1.55169 7.2869 1.48826 7.22153 1.44353C7.15618 1.39881 7.07886 1.37487 6.99968 1.37484C6.99965 1.37484 6.99962 1.37484 6.99959 1.37484C6.99951 1.37484 6.99944 1.37484 6.99936 1.37484C6.92044 1.37505 6.84342 1.39904 6.77833 1.44367C6.71314 1.48837 6.66295 1.5517 6.63434 1.62538L6.6324 1.63036L6.63238 1.63035L5.4096 4.68173L5.29237 4.97427L4.97789 4.9947L1.74809 5.20447C1.74804 5.20447 1.74799 5.20447 1.74794 5.20448C1.74793 5.20448 1.74792 5.20448 1.74791 5.20448C1.66868 5.20969 1.59286 5.23864 1.53032 5.28756C1.46773 5.33652 1.42135 5.40321 1.39724 5.47892L1.39548 5.48444L1.39545 5.48442C1.36941 5.56303 1.36763 5.64765 1.39037 5.72728C1.4131 5.8069 1.45927 5.87784 1.52289 5.93085L1.52558 5.93309L1.52557 5.9331L4.01044 8.03344L4.24932 8.23536L4.17225 8.5385L3.43312 11.4459L3.43243 11.4486C3.40683 11.547 3.41154 11.6508 3.44593 11.7465C3.48032 11.8422 3.5428 11.9252 3.62519 11.9848L3.62636 11.9857C3.70349 12.0418 3.79574 12.0734 3.89109 12.0764C3.98643 12.0793 4.08046 12.0535 4.16094 12.0023L4.16179 12.0018L6.71478 10.3845C6.75394 10.358 6.8368 10.3108 6.9511 10.2999C7.09302 10.2864 7.19991 10.3352 7.25018 10.3631L7.26278 10.3701L7.27495 10.3778L10.0333 12.1253L10.0349 12.1263C10.0998 12.1678 10.1757 12.1887 10.2527 12.1863C10.3297 12.1839 10.4042 12.1584 10.4665 12.113L10.4682 12.1117C10.5352 12.0632 10.586 11.9957 10.614 11.918C10.642 11.8402 10.6458 11.7558 10.625 11.6758L10.6235 11.67L10.6235 11.67L9.83827 8.49387L9.76311 8.18988L10.0038 7.98956L12.4773 5.93085L12.6048 5.48442ZM12.6048 5.48442C12.6308 5.56303 12.6326 5.64765 12.6098 5.72728C12.5871 5.80681 12.541 5.87767 12.4775 5.93066L12.6048 5.48442Z" stroke="black"/>
</svg>

