<svg width="32" height="32" viewBox="0 0 32 32" fill="none" xmlns="http://www.w3.org/2000/svg">
<rect x="1" y="1" width="30" height="30" rx="4" stroke="#6D6D6D" stroke-width="2"/>
<path d="M22.1872 10.9375L9.81223 10.9375" stroke="#6D6D6D" stroke-width="1.5" stroke-linecap="round" stroke-linejoin="round"/>
<path d="M14.3125 14.3125V18.8125" stroke="#6D6D6D" stroke-width="1.5" stroke-linecap="round" stroke-linejoin="round"/>
<path d="M17.6875 14.3125V18.8125" stroke="#6D6D6D" stroke-width="1.5" stroke-linecap="round" stroke-linejoin="round"/>
<path d="M21.0625 10.9375V21.625C21.0625 21.7742 21.0032 21.9173 20.8977 22.0227C20.7923 22.1282 20.6492 22.1875 20.5 22.1875H11.5C11.3508 22.1875 11.2077 22.1282 11.1023 22.0227C10.9968 21.9173 10.9375 21.7742 10.9375 21.625V10.9375" stroke="#6D6D6D" stroke-width="1.5" stroke-linecap="round" stroke-linejoin="round"/>
<path d="M18.8125 10.9375V9.8125C18.8125 9.51413 18.694 9.22798 18.483 9.017C18.272 8.80603 17.9859 8.6875 17.6875 8.6875H14.3125C14.0141 8.6875 13.728 8.80603 13.517 9.017C13.306 9.22798 13.1875 9.51413 13.1875 9.8125V10.9375" stroke="#6D6D6D" stroke-width="1.5" stroke-linecap="round" stroke-linejoin="round"/>
</svg>
