<svg width="22" height="20" viewBox="0 0 22 20" fill="none" xmlns="http://www.w3.org/2000/svg">
<path d="M4.12805 3.125L17.6443 16.875" stroke="#717171" stroke-width="1.5" stroke-linecap="round" stroke-linejoin="round"/>
<path d="M13.1592 12.3123C12.4961 12.8698 11.6207 13.1607 10.7255 13.1213C9.83042 13.0818 8.9889 12.7152 8.38609 12.1019C7.78329 11.4887 7.46856 10.6791 7.51115 9.85131C7.55373 9.02348 7.95014 8.24521 8.61317 7.68767" stroke="#717171" stroke-width="1.5" stroke-linecap="round" stroke-linejoin="round"/>
<path d="M6.32398 5.35887C2.87993 6.97181 1.4248 10 1.4248 10C1.4248 10 4.12806 15.6244 10.8862 15.6244C12.4696 15.6361 14.0333 15.2988 15.4477 14.6404" stroke="#717171" stroke-width="1.5" stroke-linecap="round" stroke-linejoin="round"/>
<path d="M17.6958 13.2109C19.5376 11.6853 20.3476 10 20.3476 10C20.3476 10 17.6443 4.37439 10.8862 4.37439C10.3009 4.3735 9.71649 4.41751 9.13904 4.50596" stroke="#717171" stroke-width="1.5" stroke-linecap="round" stroke-linejoin="round"/>
<path d="M11.5221 6.9303C12.2403 7.05784 12.8944 7.3973 13.3863 7.89775C13.8783 8.3982 14.1815 9.03267 14.2505 9.70598" stroke="#717171" stroke-width="1.5" stroke-linecap="round" stroke-linejoin="round"/>
</svg>

