<svg width="40" height="32" viewBox="0 0 40 32" fill="none" xmlns="http://www.w3.org/2000/svg">
<path d="M19.1715 4.37159e-05C18.8769 0.00138854 18.5809 0.0335733 18.2886 0.0982263C15.7946 0.649803 14.5278 2.94506 14.9305 5.00584C15.1061 5.90483 15.0139 6.43435 14.8138 6.80481C14.6138 7.17528 14.2535 7.47684 13.6132 7.75748C13.2012 7.93809 12.5401 7.87981 11.9714 7.56646C11.4026 7.25311 11.0058 6.74067 10.9413 6.25901C10.8732 5.74989 10.4052 5.39242 9.89608 5.46058C9.38697 5.52874 9.0295 5.99671 9.09766 6.50583C9.26064 7.72361 10.0932 8.65528 11.074 9.19571C12.0549 9.73613 13.2637 9.94128 14.36 9.46079C15.228 9.08032 15.998 8.52577 16.4503 7.68805C16.9027 6.85034 16.9845 5.81957 16.7558 4.64924C16.5314 3.50055 17.0733 2.27194 18.6902 1.91435C19.4092 1.75533 20.2503 1.97546 20.8267 2.48831C21.403 3.00116 21.7583 3.74861 21.546 4.88839C21.4519 5.39338 21.7851 5.87899 22.29 5.97304C22.795 6.06708 23.2806 5.73394 23.3747 5.22895C23.6932 3.51958 23.091 2.01358 22.0631 1.09892C21.2922 0.412929 20.3063 0.0268203 19.2977 0.00135551C19.2557 0.000293804 19.2136 -0.000148476 19.1715 4.37159e-05ZM29.0487 1.75926C26.97 1.80144 25.6252 2.88431 25.151 4.2821C24.6768 5.67989 24.3383 6.23594 23.856 6.68736C23.3738 7.13877 22.8473 7.38854 22.0676 7.2812C21.2608 7.17011 20.726 6.77969 20.3713 6.21249C20.0166 5.64529 19.869 4.87978 20.0178 4.07336C20.1164 3.56581 19.782 3.07531 19.2736 2.98148C18.7651 2.88766 18.2778 3.22653 18.1887 3.73583C17.9625 4.96197 18.1688 6.19854 18.7943 7.19875C19.4198 8.19897 20.4913 8.94143 21.8141 9.12356C23.164 9.30943 24.2321 8.78573 25.0234 8.04506C25.8147 7.30439 26.2047 5.91855 26.6426 5.05814C27.0806 4.19774 27.9931 3.58748 29.2026 3.61918C29.5746 3.62892 30.5017 3.90214 30.9444 4.62778C31.387 5.35342 31.63 6.3272 30.579 7.4154C30.2093 7.78269 30.2135 8.38202 30.5883 8.7441C30.9631 9.10618 31.5622 9.08968 31.9165 8.70752C33.4273 7.14335 33.412 5.19941 32.6274 3.91322C31.8428 2.62703 30.5737 1.79452 29.2514 1.75986C29.1833 1.75808 29.1158 1.7579 29.0487 1.75926ZM9.96001 2.33846C9.04856 2.32493 8.11036 2.62608 7.31362 3.25944C6.15641 4.17935 5.83615 5.53118 5.98447 6.62368C6.13279 7.71619 6.6302 8.6191 7.06952 9.21518C7.55121 9.86874 8.03322 10.4268 8.23308 10.8787C8.43294 11.3306 8.49191 11.5843 8.08132 12.2212C7.35382 13.3496 5.5334 13.277 4.59094 12.0725C4.27864 11.6545 3.68366 11.5751 3.27274 11.8967C2.86182 12.2182 2.79576 12.8148 3.12638 13.2185C4.78358 15.3366 8.17077 15.5152 9.64457 13.2292C10.3346 12.1588 10.3118 10.9798 9.93448 10.1267C9.55716 9.27354 8.96634 8.65444 8.56638 8.11176C8.28535 7.73045 7.9147 7.01471 7.82764 6.37344C7.74058 5.73216 7.81758 5.23516 8.47112 4.71563C9.14872 4.17699 9.87619 4.08655 10.5179 4.29303C11.1597 4.49952 11.7168 5.00851 11.9733 5.85477C12.115 6.35541 12.6399 6.6424 13.1379 6.49153C13.6358 6.34067 13.9132 5.81064 13.7532 5.31553C13.3318 3.92511 12.3093 2.91568 11.0877 2.52262C10.7823 2.42436 10.4645 2.36503 10.1419 2.34533C10.0815 2.34163 10.0208 2.33937 9.96001 2.33846ZM29.0897 4.94479C28.8802 4.95397 28.68 5.03365 28.5215 5.17093C27.5872 5.95715 27.121 7.12284 27.1061 8.27997C27.0913 9.4371 27.5633 10.6585 28.6324 11.3863C29.6186 12.0577 30.7172 12.1614 31.6137 11.9626C32.5102 11.7638 33.233 11.3146 33.7613 10.9111C34.0552 10.6867 34.6192 10.4442 35.1925 10.4081C35.7658 10.372 36.3318 10.5 36.8573 10.9508C37.227 11.2679 37.4898 12.1441 37.3401 12.8841C37.2653 13.254 37.1063 13.5658 36.9088 13.7665C36.7112 13.9672 36.4909 14.087 36.1044 14.1014C35.5841 14.1111 35.173 14.5458 35.1924 15.0658C35.2117 15.5858 35.6539 15.9888 36.1734 15.9599C36.9993 15.9292 37.7309 15.5828 38.2345 15.0712C38.7381 14.5596 39.0296 13.9132 39.1631 13.2528C39.4302 11.932 39.1423 10.4602 38.0682 9.53889C37.1499 8.7512 36.0437 8.4909 35.0755 8.55192C34.1073 8.61294 33.2603 8.9534 32.6323 9.43294C32.2388 9.73348 31.717 10.0347 31.2113 10.1469C30.7056 10.259 30.2442 10.2338 29.679 9.84898C29.1965 9.52058 28.9574 8.95822 28.9658 8.30359C28.9741 7.64895 29.2657 6.97533 29.7189 6.59392C30.4114 6.02763 29.9833 4.90587 29.0897 4.94479ZM3.63011 8.51408C3.476 8.51308 3.32366 8.52395 3.17411 8.54657C1.9777 8.72751 0.929001 9.94746 0.498657 10.7818C-0.465151 13.1342 0.0967668 15.6914 1.0931 19.0071C2.08943 22.3228 6.12642 29.484 10.9787 32H27.7152C30.3211 30.5623 32.5508 28.1376 33.6704 26.5665C34.8497 24.8813 36.6167 20.5791 35.401 19.1456C34.1852 17.712 32.5119 17.77 31.2571 17.668C28.6172 17.4583 24.5069 17.575 19.0789 17.4805C13.6509 17.3861 5.41306 17.4139 3.06765 15.2531C0.969888 13.5375 1.59275 11.9559 1.94975 11.3059C2.30675 10.6559 2.93745 10.4635 3.45251 10.3856C3.96757 10.3077 4.52451 10.4194 5.2541 11.4276C5.5529 11.8504 6.13944 11.9478 6.55887 11.6443C6.97829 11.3408 7.06914 10.7532 6.76095 10.3372C5.87313 9.1104 4.70882 8.52104 3.63011 8.51408Z" fill="#0EAD65"/>
</svg>

