<svg width="49" height="32" viewBox="0 0 49 32" fill="none" xmlns="http://www.w3.org/2000/svg">
<path d="M24.8378 0C23.5894 0 22.5844 0.996331 22.5844 2.23391C22.5844 3.13832 23.1215 3.91302 23.8978 4.26484C23.8979 4.26488 23.898 4.26496 23.898 4.265C24.0938 4.37271 24.2152 4.57714 24.2153 4.79906C24.215 4.93418 24.1694 5.06528 24.086 5.17203C23.0858 6.25007 22.2328 7.46439 21.559 8.78398C21.4555 8.96129 21.2693 9.0754 21.0631 9.08789H14.8472C13.1347 9.08789 11.756 10.4546 11.756 12.1523C11.756 13.85 13.1347 15.2168 14.8472 15.2168H19.2776C19.5749 15.2469 19.8076 15.4841 19.8296 15.7795C19.8296 15.7796 19.8297 15.7797 19.8296 15.7798C19.8286 15.8531 19.8279 15.9265 19.8279 16C19.8279 16.8496 19.8965 17.6921 20.0298 18.5205C20.0292 18.5197 20.0287 18.5189 20.028 18.5181C20.0563 18.8481 19.768 19.1498 19.4391 19.1648H14.5807C13.3323 19.1648 12.3273 20.1611 12.3273 21.3987C12.3273 22.6362 13.3323 23.6326 14.5807 23.6326H21.5079C21.6748 23.656 21.8248 23.7463 21.9228 23.8823C21.92 23.8773 21.9173 23.8723 21.9144 23.8673C22.5313 24.9503 23.2773 25.9658 24.1431 26.8897C24.1432 26.8898 24.1433 26.89 24.1434 26.8901C24.2288 26.9977 24.2753 27.1307 24.2753 27.2677C24.2751 27.5842 24.031 27.8481 23.7129 27.8759H17.2126C16.0602 27.8759 15.1324 28.7956 15.1324 29.938C15.1324 31.0803 16.0602 32 17.2126 32H35.2543C35.3179 32 35.3807 31.9967 35.4427 31.9912C35.6175 31.9969 35.7925 32 35.9678 32C38.7639 31.9978 41.477 31.2767 43.8614 29.9485C44.7882 29.3603 45.3422 28.3328 45.3422 27.242C45.3422 25.4746 43.897 24.042 42.1143 24.042C41.6177 24.0426 41.1227 24.1475 40.6778 24.3663C39.2539 25.1553 37.6355 25.5835 35.9678 25.5848C30.628 25.5848 26.2992 21.2936 26.2992 16C26.2992 10.7064 30.628 6.41517 35.9678 6.41516C38.7084 6.42084 41.3178 7.5792 43.1471 9.60219C43.7593 10.3687 44.6914 10.8157 45.6777 10.8157C47.4604 10.8157 48.9056 9.38301 48.9056 7.6157C48.9043 6.85761 48.6316 6.12459 48.1359 5.54727C45.0761 2.03927 40.6459 0.00752988 35.9678 0C35.628 0 35.2908 0.0105782 34.9562 0.0310938C34.8342 0.0109894 34.709 0 34.5811 0H24.8378ZM24.3165 4.40703C24.319 4.40761 24.3214 4.40833 24.3239 4.40891C24.3214 4.40833 24.319 4.40761 24.3165 4.40703ZM24.4268 4.42992C24.4298 4.43046 24.4327 4.43119 24.4357 4.43172C24.4327 4.43119 24.4298 4.43047 24.4268 4.42992ZM24.6334 4.4575C24.6446 4.45849 24.6556 4.45995 24.6668 4.46078C24.6556 4.45995 24.6446 4.45849 24.6334 4.4575ZM24.7818 4.46641C24.7114 4.53355 24.6418 4.60161 24.5726 4.67C24.6418 4.60155 24.7114 4.53355 24.7818 4.46641ZM24.4808 4.76188C24.4467 4.79618 24.4128 4.83071 24.3789 4.86531C24.4127 4.83067 24.4467 4.79621 24.4808 4.76188Z" fill="black"/>
<path d="M10.0899 0C8.8415 0 7.83645 0.996332 7.83645 2.23391C7.83645 3.47148 8.8415 4.46781 10.0899 4.46781H17.659C18.9074 4.46781 19.9125 3.47148 19.9125 2.23391C19.9125 0.996332 18.9074 0 17.659 0H10.0899Z" fill="black"/>
<path d="M3.09125 9.08789C1.37871 9.08789 0 10.4546 0 12.1523C0 13.85 1.37871 15.2168 3.09125 15.2168H6.41137C8.12391 15.2168 9.50254 13.85 9.50254 12.1523C9.50254 10.4546 8.12391 9.08789 6.41137 9.08789H3.09125Z" fill="black"/>
<path d="M35.8663 12.8C34.0835 12.8 32.6383 14.2327 32.6383 16C32.6383 17.7673 34.0835 19.2 35.8663 19.2C37.649 19.2 39.0943 17.7673 39.0943 16C39.0943 14.2327 37.649 12.8 35.8663 12.8Z" fill="black"/>
<path d="M6.08699 19.1648C4.83859 19.1648 3.83363 20.1611 3.83363 21.3987C3.83363 22.6362 4.83859 23.6326 6.08699 23.6326H7.53154C8.77994 23.6326 9.78499 22.6362 9.78499 21.3987C9.78499 20.1611 8.77994 19.1648 7.53154 19.1648H6.08699Z" fill="black"/>
</svg>

